<?xml version="1.0" standalone="no"?>
<!DOCTYPE svg PUBLIC "-//W3C//DTD SVG 20010904//EN"
 "http://www.w3.org/TR/2001/REC-SVG-20010904/DTD/svg10.dtd">
<svg version="1.0" xmlns="http://www.w3.org/2000/svg"
 width="236.000000pt" height="236.000000pt" viewBox="0 0 236.000000 236.000000"
 preserveAspectRatio="xMidYMid meet">
<metadata>
Created by potrace 1.14, written by Peter Selinger 2001-2017
</metadata>
<g transform="translate(0.000000,236.000000) scale(0.100000,-0.100000)"
fill="#000000" stroke="none">
<path d="M487 2349 c-186 -43 -301 -245 -245 -429 15 -50 55 -116 92 -153 521
-516 779 -767 790 -767 18 0 46 27 46 44 0 7 -7 35 -15 62 -8 27 -42 155 -75
284 -33 129 -78 303 -100 385 -22 83 -54 202 -70 265 -45 170 -110 254 -231
295 -57 19 -141 25 -192 14z"/>
<path d="M1741 2344 c-60 -21 -111 -54 -148 -97 -36 -41 -82 -131 -88 -173 -4
-29 -19 -89 -121 -479 -31 -115 -57 -217 -59 -225 -2 -8 -19 -73 -38 -145 -44
-166 -49 -188 -39 -202 7 -11 26 -16 49 -14 7 0 197 184 421 409 301 299 415
419 430 452 104 223 -45 475 -288 486 -50 2 -90 -2 -119 -12z"/>
<path d="M268 1125 c-128 -32 -193 -170 -137 -290 42 -89 152 -141 244 -113
29 8 243 66 275 73 8 2 49 14 90 25 41 12 122 35 180 51 57 16 109 34 114 39
14 14 0 37 -26 43 -35 8 -537 146 -588 162 -68 21 -101 23 -152 10z"/>
<path d="M1959 1118 c-35 -10 -188 -53 -339 -94 -151 -42 -278 -78 -282 -80
-16 -10 -7 -35 15 -44 12 -6 63 -21 112 -34 50 -13 191 -52 315 -86 257 -70
269 -72 330 -54 172 50 200 280 45 377 -52 34 -115 38 -196 15z"/>
<path d="M853 588 c-156 -156 -261 -268 -273 -293 -14 -29 -18 -56 -16 -98 11
-185 241 -263 363 -124 33 38 35 42 82 222 142 542 142 545 109 545 -7 0 -126
-114 -265 -252z"/>
<path d="M1233 829 c-12 -12 -11 -16 36 -194 18 -66 34 -127 36 -135 2 -8 15
-60 30 -115 14 -55 35 -133 45 -172 22 -85 33 -108 69 -146 125 -136 352 -46
354 141 1 35 -6 71 -16 93 -16 33 -518 539 -535 539 -4 0 -13 -5 -19 -11z"/>
</g>
</svg>
