<svg width="29" height="29" viewBox="0 0 29 29" fill="none" xmlns="http://www.w3.org/2000/svg">
<path d="M16.9739 11.0628L11.0628 16.9739C10.3035 16.2145 9.83618 15.1749 9.83618 14.0183C9.83618 11.7053 11.7053 9.8362 14.0183 9.8362C15.1748 9.8362 16.2145 10.3035 16.9739 11.0628Z" stroke="#A1A8B0" stroke-width="1.75229" stroke-linecap="round" stroke-linejoin="round"/>
<path d="M20.8173 6.74039C18.773 5.19837 16.4366 4.35727 14.0184 4.35727C9.89471 4.35727 6.05135 6.78712 3.37618 10.9926C2.3248 12.6398 2.3248 15.4084 3.37618 17.0556C4.29905 18.5041 5.37379 19.7541 6.54199 20.7587" stroke="#A1A8B0" stroke-width="1.75229" stroke-linecap="round" stroke-linejoin="round"/>
<path d="M9.83618 22.8149C11.1679 23.3757 12.5814 23.6794 14.0183 23.6794C18.1421 23.6794 21.9854 21.2495 24.6606 17.044C25.712 15.3969 25.712 12.6283 24.6606 10.9811C24.2751 10.3736 23.8545 9.80123 23.4223 9.26385" stroke="#A1A8B0" stroke-width="1.75229" stroke-linecap="round" stroke-linejoin="round"/>
<path d="M18.1188 14.836C17.815 16.4831 16.4716 17.8265 14.8245 18.1303" stroke="#A1A8B0" stroke-width="1.75229" stroke-linecap="round" stroke-linejoin="round"/>
<path d="M11.0628 16.9739L2.33643 25.7003" stroke="#A1A8B0" stroke-width="1.75229" stroke-linecap="round" stroke-linejoin="round"/>
<path d="M25.7003 2.33635L16.9739 11.0628" stroke="#A1A8B0" stroke-width="1.75229" stroke-linecap="round" stroke-linejoin="round"/>
</svg>
